# xmcd
#
# Track frame offsets: 
#        150
#        15557
#        27511
#        41787
#        55045
#        69060
#        81534
#        95348
#        108389
#        120819
#        132379
#        144785
#        159170
#        172745
#
# Disc length: 2569 seconds
#
# Revision: 1
# Processed by: cddbd v1.5.2PL0 Copyright (c) Steve Scherf et al.
# Submitted via: ExactAudioCopyFreeDBPlugin 1.0
#
DISCID=a30a070e
DTITLE=Mary Duff - Just A Country Girl
DYEAR=2004
DGENRE=Country
TTITLE0=Take Me Home Country Roads
TTITLE1=Walking After Midnight
TTITLE2=57 Chevrolet
TTITLE3=Talking In Your Sleep
TTITLE4=Rose Garden
TTITLE5=Stand By Your Man
TTITLE6=Coal Miner's Daughter
TTITLE7=Mary Duff and Daniel O'Donnell - Making Plans
TTITLE8=To Daddy
TTITLE9=Where The Boys Are
TTITLE10=San Antonio Rose
TTITLE11=Making Believe
TTITLE12=Jealous Heart
TTITLE13=Working Man
EXTD=YEAR: 2004 ID3G: 2
EXTT0=
EXTT1=
EXTT2=
EXTT3=
EXTT4=
EXTT5=
EXTT6=
EXTT7=
EXTT8=
EXTT9=
EXTT10=
EXTT11=
EXTT12=
EXTT13=
PLAYORDER=
